<svg version="1.1" xmlns="http://www.w3.org/2000/svg" viewBox="0 0 126.75730613574137 158.02964833712014"
    width="126.75730613574137" height="158.02964833712014">
    <defs>
        <style class="style-fonts"></style>
    </defs>
    <rect x="0" y="0" width="126.75730613574137" height="158.02964833712014" fill="#66000000"></rect>
    <g transform="translate(66.07454463695507 68.23125789222257) rotate(0 7.548496393436238 23.723845807942524)"
        stroke="none">
        <path fill="#be4bdb"
            d="M 2.26,10.17 Q 2.26,10.17 -0.49,10.96 -3.24,11.75 -8.03,14.95 -12.82,18.16 -13.85,22.53 -14.87,26.91 -10.63,28.27 -6.39,29.64 -1.09,30.74 4.19,31.85 8.92,32.33 13.64,32.82 18.14,32.80 22.64,32.78 25.61,29.00 28.58,25.21 23.74,23.37 18.89,21.52 14.94,19.89 10.98,18.25 5.46,17.81 -0.05,17.37 -4.79,17.35 -9.52,17.33 -5.70,15.15 -1.87,12.97 -4.55,16.30 -7.23,19.62 -4.60,15.85 -1.97,12.07 -4.74,6.16 -7.51,0.26 -4.32,4.47 -1.13,8.69 -4.13,5.31 -7.12,1.93 -3.64,4.63 -0.16,7.33 4.37,6.16 8.90,4.99 15.00,6.92 21.10,8.84 23.09,10.37 25.09,11.89 26.49,13.97 27.89,16.06 28.55,18.48 29.22,20.90 29.07,23.40 28.93,25.91 27.99,28.23 27.06,30.56 25.42,32.47 23.79,34.37 21.64,35.66 19.49,36.95 17.03,37.48 14.58,38.01 12.09,37.73 9.60,37.45 7.32,36.39 5.05,35.33 3.23,33.60 1.42,31.87 0.25,29.65 -0.91,27.43 -1.31,24.95 -1.71,22.47 -1.29,20.00 -0.88,17.52 0.30,15.31 1.48,13.10 3.31,11.38 5.13,9.66 7.41,8.61 9.69,7.57 12.19,7.30 14.68,7.04 17.13,7.59 19.58,8.14 21.73,9.44 23.87,10.74 25.49,12.65 27.11,14.57 28.03,16.91 28.95,19.24 29.08,21.75 29.20,24.25 28.52,26.67 27.85,29.08 26.43,31.15 25.01,33.23 23.01,34.74 21.01,36.25 18.63,37.04 16.25,37.83 13.74,37.83 11.23,37.82 8.86,37.01 6.48,36.20 6.48,36.20 6.49,36.20 6.03,36.08 5.57,35.96 1.07,35.88 -3.42,35.80 -9.28,34.59 -15.15,33.37 -20.44,29.16 -25.73,24.95 -29.12,17.62 -32.51,10.29 -31.13,5.42 -29.75,0.55 -26.82,-3.28 -23.89,-7.12 -20.25,-9.35 -16.62,-11.58 -11.80,-12.32 -6.98,-13.06 -1.91,-13.04 3.14,-13.03 8.62,-12.76 14.10,-12.50 18.62,-11.12 23.13,-9.75 27.30,-7.69 31.46,-5.64 36.16,-2.81 40.85,0.01 45.59,3.82 50.33,7.64 53.17,12.29 56.02,16.93 57.07,21.74 58.13,26.54 57.29,31.55 56.46,36.56 54.58,41.24 52.71,45.92 48.80,50.22 44.89,54.53 40.20,57.67 35.50,60.80 29.98,61.47 24.47,62.13 19.46,62.00 14.46,61.87 10.03,61.28 5.61,60.69 1.32,60.07 -2.96,59.45 -8.73,57.96 -14.51,56.47 -18.68,54.77 -22.86,53.08 -28.51,49.83 -34.15,46.59 -37.05,39.95 -39.94,33.31 -40.42,27.28 -40.90,21.24 -40.10,16.87 -39.30,12.50 -36.74,8.66 -34.18,4.82 -30.26,1.67 -26.35,-1.47 -21.79,-4.11 -17.24,-6.76 -12.57,-8.01 -7.91,-9.27 -5.08,-9.72 -2.26,-10.17 -1.01,-10.30 0.23,-10.42 1.48,-10.24 2.72,-10.06 3.89,-9.59 5.05,-9.11 6.07,-8.38 7.09,-7.64 7.90,-6.68 8.71,-5.72 9.27,-4.59 9.83,-3.47 10.10,-2.24 10.37,-1.01 10.34,0.23 10.32,1.49 9.99,2.70 9.66,3.92 9.05,5.02 8.44,6.12 7.58,7.04 6.73,7.96 5.68,8.65 4.63,9.34 3.44,9.76 2.26,10.17 2.26,10.17 L 2.26,10.17 Z">
        </path>
    </g>
    <g transform="translate(45.58576871191377 124.30580252917764) rotate(0 -17.792884355956886 7.548496393436238)"
        stroke="none">
        <path fill="#be4bdb"
            d="M 9.82,2.18 Q 9.82,2.18 9.39,5.02 8.95,7.86 6.95,12.59 4.94,17.31 0.16,21.03 -4.61,24.74 -9.64,25.93 -14.67,27.11 -19.74,27.38 -24.82,27.64 -32.26,25.64 -39.70,23.63 -43.17,19.12 -46.64,14.61 -47.39,12.62 -48.13,10.63 -48.21,8.51 -48.28,6.39 -47.67,4.36 -47.06,2.33 -45.83,0.60 -44.61,-1.12 -42.89,-2.37 -41.18,-3.62 -39.15,-4.26 -37.13,-4.89 -35.01,-4.85 -32.89,-4.80 -30.89,-4.09 -28.90,-3.37 -27.23,-2.05 -25.57,-0.73 -24.42,1.04 -23.26,2.82 -22.74,4.87 -22.21,6.93 -22.37,9.04 -22.53,11.16 -23.35,13.11 -24.18,15.07 -25.59,16.66 -26.99,18.24 -28.83,19.30 -30.67,20.36 -32.75,20.77 -34.83,21.18 -36.94,20.91 -39.04,20.64 -40.95,19.71 -42.85,18.78 -44.36,17.29 -45.87,15.80 -46.83,13.90 -47.78,12.01 -48.08,9.91 -48.38,7.81 -48.00,5.72 -47.61,3.64 -46.58,1.78 -45.55,-0.06 -43.98,-1.49 -42.41,-2.91 -40.46,-3.76 -38.52,-4.62 -36.41,-4.80 -34.29,-4.99 -32.23,-4.49 -30.17,-3.99 -28.37,-2.86 -26.58,-1.73 -25.24,-0.08 -23.90,1.55 -23.90,1.55 -23.90,1.55 -22.93,2.12 -21.96,2.69 -16.69,2.99 -11.43,3.29 -10.63,0.55 -9.82,-2.18 -9.42,-3.32 -9.01,-4.47 -8.35,-5.48 -7.68,-6.50 -6.79,-7.32 -5.90,-8.15 -4.84,-8.74 -3.78,-9.32 -2.61,-9.64 -1.44,-9.96 -0.22,-9.99 0.98,-10.01 2.16,-9.75 3.35,-9.49 4.44,-8.95 5.52,-8.41 6.45,-7.63 7.38,-6.84 8.09,-5.86 8.80,-4.88 9.26,-3.75 9.71,-2.63 9.89,-1.43 10.06,-0.23 9.94,0.97 9.82,2.18 9.82,2.18 L 9.82,2.18 Z">
        </path>
    </g>
    <g transform="translate(89.79839044489756 130.7759422949801) rotate(0 13.479457845421905 8.62685302107002)"
        stroke="none">
        <path fill="#be4bdb"
            d="M 10.20,0 Q 10.20,0 10.37,2.69 10.54,5.39 15.29,5.02 20.03,4.65 20.41,3.67 20.80,2.70 22.78,2.06 24.76,1.41 26.84,1.44 28.93,1.46 30.89,2.15 32.86,2.84 34.50,4.12 36.15,5.40 37.30,7.14 38.45,8.87 38.98,10.89 39.51,12.90 39.38,14.98 39.24,17.06 38.45,18.99 37.65,20.91 36.29,22.49 34.92,24.06 33.12,25.11 31.32,26.16 29.28,26.59 27.24,27.01 25.18,26.76 23.11,26.51 21.23,25.62 19.35,24.72 17.85,23.27 16.35,21.82 15.40,19.97 14.44,18.12 14.13,16.06 13.82,14.00 14.18,11.94 14.54,9.89 15.54,8.06 16.54,6.23 18.06,4.82 19.59,3.40 21.50,2.55 23.40,1.70 25.47,1.50 27.54,1.30 29.57,1.77 31.60,2.24 33.38,3.33 35.15,4.43 36.48,6.03 37.81,7.64 38.56,9.58 39.30,11.53 39.39,13.61 39.48,15.69 38.90,17.69 38.32,19.69 37.13,21.40 35.94,23.11 34.27,24.35 32.59,25.59 32.60,25.59 32.60,25.59 31.32,26.76 30.05,27.93 23.99,28.83 17.93,29.72 13.51,29.34 9.09,28.95 3.53,26.52 -2.01,24.09 -4.95,20.16 -7.88,16.23 -9.21,11.00 -10.54,5.76 -10.37,2.88 -10.20,0 -10.05,-1.22 -9.91,-2.44 -9.47,-3.59 -9.03,-4.74 -8.33,-5.75 -7.64,-6.76 -6.71,-7.58 -5.79,-8.40 -4.70,-8.97 -3.61,-9.54 -2.42,-9.83 -1.22,-10.13 0.00,-10.13 1.23,-10.13 2.42,-9.83 3.62,-9.54 4.70,-8.97 5.79,-8.40 6.72,-7.58 7.64,-6.76 8.34,-5.75 9.03,-4.74 9.47,-3.59 9.91,-2.44 10.05,-1.22 10.20,0.00 10.20,0.00 L 10.20,0 Z">
        </path>
    </g>
    <g transform="translate(82.24989405146135 59.60440487115255) rotate(0 11.861922903971248 -24.802202435576277)"
        stroke="none">
        <path
            d="M1.34 0.81 C-0.09 0.52, -6.02 -0.23, -7.02 -0.31 C-8.01 -0.38, -4.75 0.61, -4.66 0.36 C-4.56 0.12, -6.06 0.36, -6.44 -1.77 C-6.82 -3.9, -8.77 -8.48, -6.92 -12.42 C-5.08 -16.35, 2.64 -22.69, 4.62 -25.36 C6.61 -28.04, 2.5 -25.85, 5 -28.49 C7.5 -31.13, 17.06 -38.92, 19.63 -41.21 C22.2 -43.49, 19.42 -41.16, 20.43 -42.21 C21.45 -43.25, 24.76 -46.89, 25.74 -47.45 C26.72 -48.02, 26.31 -45.48, 26.33 -45.6 C26.35 -45.72, 25.12 -47.35, 25.84 -48.16 C26.56 -48.96, 30.39 -50.57, 30.64 -50.44 C30.9 -50.32, 27.78 -48.62, 27.37 -47.43 C26.96 -46.24, 28.32 -44.69, 28.18 -43.31 C28.03 -41.92, 26.86 -40.34, 26.51 -39.12 C26.16 -37.89, 26.52 -37.11, 26.08 -35.96 C25.64 -34.8, 24.43 -33.9, 23.86 -32.2 C23.3 -30.51, 23.2 -27.65, 22.69 -25.79 C22.18 -23.93, 21.23 -23.23, 20.8 -21.05 C20.36 -18.86, 20.03 -14.01, 20.07 -12.69 C20.1 -11.36, 21.53 -13.48, 20.98 -13.08 C20.44 -12.69, 17.69 -10.9, 16.81 -10.34 C15.93 -9.77, 15.59 -10.13, 15.69 -9.71 C15.8 -9.28, 17.75 -8.42, 17.44 -7.79 C17.12 -7.16, 15.06 -6.44, 13.83 -5.93 C12.59 -5.43, 10.54 -5.3, 10.03 -4.74 C9.52 -4.18, 10.72 -3.04, 10.75 -2.6 C10.78 -2.16, 12.01 -2.41, 10.2 -2.09 C8.38 -1.77, 1.61 -0.93, -0.12 -0.69 C-1.85 -0.44, -0.24 -0.82, -0.19 -0.62"
            stroke="none" stroke-width="0" fill="#9775fa" fill-rule="evenodd"></path>
        <path fill="#da77f2"
            d="M 0,2.64 Q 0,2.64 -1.24,2.65 -2.48,2.66 -4.54,2.10 -6.60,1.55 -7.69,0.63 -8.77,-0.27 -9.10,-1.81 -9.43,-3.35 -9.50,-4.49 -9.57,-5.64 -9.60,-7.17 -9.63,-8.70 -9.66,-9.86 -9.70,-11.02 -9.70,-12.23 -9.70,-13.43 -9.20,-14.68 -8.71,-15.94 -7.56,-17.33 -6.41,-18.71 -5.39,-20.21 -4.36,-21.71 -2.72,-23.01 -1.07,-24.31 -0.01,-25.76 1.04,-27.22 2.18,-28.05 3.31,-28.89 4.17,-30.02 5.02,-31.16 6.04,-32.14 7.07,-33.12 8.41,-34.48 9.76,-35.84 10.82,-37.37 11.88,-38.90 13.50,-40.19 15.12,-41.48 16.79,-42.67 18.46,-43.87 19.54,-45.37 20.61,-46.87 22.28,-48.08 23.95,-49.28 25.31,-50.14 26.67,-51.01 26.52,-50.88 26.38,-50.76 26.59,-51.13 26.81,-51.50 27.10,-51.80 27.40,-52.11 27.76,-52.34 28.12,-52.57 28.53,-52.70 28.93,-52.83 29.36,-52.87 29.78,-52.90 30.20,-52.83 30.63,-52.76 31.02,-52.59 31.41,-52.42 31.75,-52.16 32.09,-51.91 32.36,-51.57 32.63,-51.24 32.81,-50.86 32.99,-50.47 33.07,-50.05 33.16,-49.63 33.14,-49.21 33.12,-48.78 33.00,-48.37 32.88,-47.96 32.19,-46.58 31.50,-45.19 31.11,-43.14 30.71,-41.10 30.05,-39.51 29.40,-37.93 29.37,-36.47 29.34,-35.01 28.82,-33.73 28.29,-32.46 27.81,-31.35 27.33,-30.25 27.27,-29.03 27.20,-27.81 26.70,-25.57 26.20,-23.34 25.68,-22.20 25.15,-21.07 24.55,-19.31 23.95,-17.56 23.67,-15.61 23.39,-13.67 22.77,-12.77 22.15,-11.88 21.13,-10.33 20.10,-8.79 19.90,-7.70 19.70,-6.61 18.53,-5.26 17.37,-3.92 16.33,-2.77 15.28,-1.63 14.22,-1.10 13.15,-0.57 12.30,0.30 11.45,1.17 10.40,1.61 9.35,2.06 7.86,2.24 6.37,2.42 5.22,2.44 4.06,2.47 3.31,2.54 2.57,2.62 2.03,2.82 1.49,3.02 0.91,3.04 0.34,3.06 -0.20,2.90 -0.75,2.73 -1.22,2.40 -1.69,2.07 -2.03,1.61 -2.37,1.14 -2.55,0.59 -2.72,0.04 -2.71,-0.52 -2.70,-1.10 -2.50,-1.64 -2.31,-2.18 -1.95,-2.63 -1.59,-3.08 -1.11,-3.40 -0.63,-3.71 -0.07,-3.85 0.48,-4.00 1.05,-3.95 1.62,-3.91 2.15,-3.69 2.68,-3.47 3.12,-3.08 3.55,-2.70 3.83,-2.20 4.12,-1.71 4.23,-1.14 4.35,-0.58 4.27,-0.01 4.20,0.55 3.95,1.07 3.70,1.59 3.29,2.00 2.89,2.41 2.38,2.67 1.86,2.93 1.29,3.01 0.72,3.09 0.16,2.99 -0.40,2.88 -0.90,2.60 -1.41,2.33 -1.79,1.90 -2.18,1.47 -2.41,0.95 -2.64,0.42 -2.69,-0.14 -2.74,-0.72 -2.61,-1.28 -2.48,-1.83 -2.17,-2.32 -1.86,-2.81 -1.42,-3.17 -0.97,-3.54 -0.97,-3.54 -0.97,-3.54 2.50,-4.10 5.98,-4.66 7.20,-4.72 8.42,-4.79 9.40,-5.67 10.38,-6.55 11.28,-7.52 12.17,-8.49 13.13,-9.50 14.09,-10.50 14.86,-11.80 15.64,-13.09 16.36,-14.58 17.09,-16.06 17.24,-17.50 17.40,-18.93 17.97,-20.71 18.53,-22.49 19.45,-24.40 20.36,-26.32 20.39,-27.99 20.42,-29.67 20.54,-30.89 20.66,-32.11 21.56,-33.85 22.45,-35.59 22.48,-36.74 22.51,-37.89 22.98,-39.69 23.45,-41.49 23.82,-42.50 24.19,-43.51 24.48,-44.77 24.77,-46.03 25.57,-48.40 26.38,-50.76 26.59,-51.13 26.81,-51.50 27.10,-51.80 27.40,-52.11 27.76,-52.34 28.12,-52.56 28.53,-52.70 28.93,-52.83 29.36,-52.87 29.78,-52.90 30.20,-52.83 30.62,-52.76 31.02,-52.59 31.41,-52.42 31.75,-52.16 32.09,-51.91 32.36,-51.57 32.63,-51.24 32.81,-50.86 32.99,-50.47 33.07,-50.05 33.16,-49.64 33.14,-49.21 33.12,-48.78 33.00,-48.37 32.88,-47.96 32.24,-47.55 31.59,-47.13 30.41,-45.98 29.23,-44.82 28.17,-44.32 27.12,-43.81 25.63,-42.30 24.13,-40.80 23.37,-39.80 22.61,-38.80 21.15,-37.80 19.68,-36.80 18.15,-35.66 16.61,-34.52 15.46,-32.93 14.30,-31.34 13.00,-30.00 11.70,-28.67 10.27,-27.05 8.84,-25.43 7.42,-24.03 6.01,-22.64 4.72,-20.99 3.44,-19.35 2.02,-18.33 0.60,-17.31 -0.45,-15.75 -1.52,-14.19 -2.36,-13.16 -3.20,-12.12 -3.23,-11.01 -3.26,-9.90 -3.29,-8.64 -3.33,-7.38 -3.35,-6.04 -3.37,-4.70 -2.92,-3.68 -2.48,-2.66 -1.24,-2.65 0,-2.64 0.31,-2.60 0.63,-2.56 0.93,-2.45 1.22,-2.34 1.49,-2.16 1.75,-1.98 1.96,-1.74 2.17,-1.50 2.32,-1.22 2.47,-0.93 2.55,-0.62 2.62,-0.31 2.62,0.00 2.62,0.31 2.55,0.62 2.47,0.93 2.32,1.22 2.17,1.50 1.96,1.74 1.75,1.98 1.49,2.16 1.22,2.34 0.93,2.45 0.63,2.56 0.31,2.60 -0.00,2.64 -0.00,2.64 L 0,2.64 Z">
        </path>
    </g>
    <g transform="translate(44.50741208428002 81.1715374238276) rotate(0 8.62685302107002 8.087674707253115)"
        stroke="none">
        <path fill="#1e1e1e"
            d="M 2.62,0 Q 2.62,0 2.58,1.55 2.55,3.10 2.56,4.37 2.58,5.65 2.66,7.18 2.74,8.71 2.81,9.86 2.88,11.02 4.93,11.93 6.98,12.84 8.73,12.90 10.48,12.96 11.09,11.51 11.71,10.06 12.15,8.43 12.60,6.80 13.35,3.99 14.10,1.18 14.40,0.75 14.70,0.32 15.13,0.01 15.55,-0.30 16.05,-0.46 16.56,-0.62 17.08,-0.61 17.61,-0.60 18.11,-0.43 18.60,-0.25 19.02,0.07 19.43,0.39 19.72,0.83 20.01,1.27 20.15,1.78 20.28,2.29 20.24,2.82 20.21,3.34 20.00,3.83 19.80,4.32 19.45,4.71 19.11,5.11 18.65,5.37 18.20,5.64 17.68,5.75 17.16,5.85 16.64,5.79 16.12,5.72 15.64,5.49 15.17,5.26 14.79,4.90 14.41,4.53 14.17,4.06 13.93,3.59 13.86,3.07 13.78,2.55 13.87,2.03 13.96,1.51 14.22,1.05 14.47,0.59 14.86,0.23 15.25,-0.12 15.73,-0.33 16.21,-0.55 16.74,-0.60 17.26,-0.64 17.77,-0.52 18.29,-0.40 18.73,-0.12 19.18,0.14 19.52,0.55 19.85,0.96 20.04,1.45 20.23,1.94 20.25,2.47 20.27,3.00 20.12,3.50 19.97,4.01 19.97,4.01 19.97,4.01 19.53,5.59 19.08,7.17 18.54,8.88 18.01,10.59 17.36,12.33 16.70,14.06 15.97,15.51 15.24,16.96 14.21,17.72 13.18,18.48 11.85,18.89 10.53,19.30 8.63,19.18 6.74,19.06 5.14,18.50 3.55,17.94 2.18,17.56 0.81,17.17 -0.14,16.66 -1.09,16.16 -1.80,15.17 -2.50,14.18 -2.69,12.60 -2.88,11.02 -2.81,9.86 -2.74,8.71 -2.66,7.18 -2.58,5.65 -2.56,4.37 -2.55,3.10 -2.58,1.55 -2.62,0 -2.58,-0.31 -2.54,-0.62 -2.43,-0.92 -2.32,-1.21 -2.14,-1.47 -1.96,-1.73 -1.72,-1.94 -1.48,-2.15 -1.20,-2.30 -0.92,-2.44 -0.62,-2.52 -0.31,-2.60 0.00,-2.60 0.31,-2.60 0.62,-2.52 0.92,-2.44 1.20,-2.30 1.48,-2.15 1.72,-1.94 1.96,-1.73 2.14,-1.47 2.32,-1.21 2.43,-0.92 2.54,-0.62 2.58,-0.31 2.62,0.00 2.62,0.00 L 2.62,0 Z">
        </path>
    </g>
    <g transform="translate(95.19017358306633 89.79839044489762) rotate(0 7.548496393436267 5.93096145198561)"
        stroke="none">
        <path fill="#1e1e1e"
            d="M 2.66,0 Q 2.66,0 2.67,1.24 2.68,2.48 2.75,3.98 2.82,5.48 3.31,6.76 3.79,8.04 5.05,8.73 6.30,9.42 7.62,9.00 8.94,8.57 9.68,7.80 10.42,7.04 10.50,5.98 10.58,4.91 11.72,1.69 12.86,-1.52 13.36,-1.78 13.85,-2.03 14.40,-2.11 14.94,-2.19 15.49,-2.09 16.03,-2.00 16.52,-1.73 17.00,-1.47 17.38,-1.06 17.75,-0.65 17.98,-0.15 18.20,0.35 18.26,0.90 18.31,1.45 18.18,1.99 18.06,2.53 17.76,3.00 17.47,3.47 17.05,3.82 16.62,4.17 16.10,4.37 15.58,4.57 15.03,4.59 14.48,4.61 13.95,4.46 13.42,4.30 12.96,3.98 12.51,3.67 12.18,3.22 11.85,2.78 11.68,2.25 11.51,1.72 11.52,1.17 11.53,0.62 11.71,0.10 11.90,-0.42 12.24,-0.85 12.58,-1.29 13.04,-1.59 13.50,-1.90 14.04,-2.04 14.57,-2.18 15.13,-2.14 15.68,-2.10 16.19,-1.89 16.70,-1.68 17.12,-1.31 17.53,-0.95 17.81,-0.47 18.09,0.00 18.20,0.54 18.31,1.08 18.25,1.63 18.18,2.18 17.94,2.68 17.70,3.18 17.31,3.57 16.93,3.97 16.93,3.97 16.93,3.97 17.13,4.66 17.34,5.36 17.13,6.90 16.91,8.43 16.55,9.43 16.18,10.44 15.20,11.83 14.21,13.23 13.18,13.93 12.15,14.64 10.51,14.88 8.88,15.13 7.75,15.08 6.61,15.03 5.16,14.81 3.70,14.59 2.42,13.84 1.13,13.10 0.17,12.41 -0.78,11.73 -1.41,10.81 -2.04,9.88 -2.43,7.68 -2.82,5.48 -2.75,3.98 -2.68,2.48 -2.67,1.24 -2.66,0 -2.62,-0.31 -2.58,-0.63 -2.47,-0.93 -2.36,-1.23 -2.17,-1.50 -1.99,-1.76 -1.75,-1.98 -1.51,-2.19 -1.22,-2.34 -0.94,-2.49 -0.63,-2.56 -0.32,-2.64 0.00,-2.64 0.32,-2.64 0.63,-2.56 0.94,-2.49 1.22,-2.34 1.51,-2.19 1.75,-1.98 1.99,-1.76 2.17,-1.50 2.36,-1.23 2.47,-0.93 2.58,-0.63 2.62,-0.31 2.66,0.00 2.66,0.00 L 2.66,0 Z">
        </path>
    </g>
    <g transform="translate(73.62304103039133 109.2088097423051) rotate(0 5.93096145198561 1.6175349414506286)"
        stroke="none">
        <path fill="#1e1e1e"
            d="M 2.20,-1.46 Q 2.20,-1.46 2.84,-0.54 3.48,0.38 4.38,1.82 5.28,3.25 5.21,1.61 5.15,-0.01 8.01,-2.59 10.87,-5.17 11.38,-5.19 11.89,-5.22 12.38,-5.08 12.87,-4.94 13.30,-4.65 13.72,-4.36 14.02,-3.96 14.33,-3.55 14.49,-3.06 14.65,-2.58 14.65,-2.07 14.65,-1.56 14.48,-1.07 14.32,-0.59 14.01,-0.18 13.69,0.21 13.27,0.50 12.85,0.78 12.35,0.91 11.86,1.05 11.35,1.02 10.84,0.99 10.37,0.80 9.89,0.60 9.51,0.27 9.12,-0.05 8.86,-0.49 8.60,-0.93 8.49,-1.43 8.38,-1.93 8.44,-2.44 8.50,-2.94 8.71,-3.41 8.93,-3.87 9.28,-4.24 9.64,-4.61 10.09,-4.84 10.54,-5.08 11.05,-5.16 11.55,-5.24 12.05,-5.15 12.56,-5.07 13.01,-4.83 13.46,-4.59 13.81,-4.21 14.16,-3.84 14.37,-3.38 14.58,-2.91 14.63,-2.40 14.69,-1.90 14.57,-1.40 14.46,-0.90 14.20,-0.46 13.93,-0.03 13.54,0.29 13.15,0.62 12.67,0.81 12.20,0.99 12.20,0.99 12.20,0.99 11.43,1.89 10.67,2.79 9.65,4.68 8.64,6.57 7.69,7.19 6.74,7.81 4.61,7.79 2.49,7.78 1.65,6.88 0.81,5.98 -0.09,4.66 -1.00,3.33 -1.60,2.40 -2.20,1.46 -2.34,1.18 -2.49,0.89 -2.56,0.58 -2.63,0.27 -2.62,-0.04 -2.62,-0.36 -2.54,-0.67 -2.45,-0.97 -2.30,-1.25 -2.15,-1.53 -1.93,-1.77 -1.72,-2.00 -1.45,-2.18 -1.19,-2.36 -0.89,-2.47 -0.59,-2.58 -0.27,-2.61 0.04,-2.64 0.35,-2.60 0.67,-2.55 0.97,-2.44 1.26,-2.32 1.52,-2.13 1.78,-1.95 1.99,-1.71 2.20,-1.46 2.20,-1.46 L 2.20,-1.46 Z">
        </path>
    </g>
</svg>